<?xml version="1.0" encoding="UTF-8" standalone="no"?>
<svg
   xmlns:dc="http://purl.org/dc/elements/1.1/"
   xmlns:cc="http://creativecommons.org/ns#"
   xmlns:rdf="http://www.w3.org/1999/02/22-rdf-syntax-ns#"
   xmlns:svg="http://www.w3.org/2000/svg"
   xmlns="http://www.w3.org/2000/svg"
   xmlns:sodipodi="http://sodipodi.sourceforge.net/DTD/sodipodi-0.dtd"
   xmlns:inkscape="http://www.inkscape.org/namespaces/inkscape"
   width="354.33069"
   height="354.33069"
   viewBox="0 0 0 523"
   version="1.1"
   id="svg2"
   inkscape:version="0.48.5 r10040"
   sodipodi:docname="case.svg">
  <metadata
     id="metadata7929">
    <rdf:RDF>
      <cc:Work
         rdf:about="">
        <dc:format>image/svg+xml</dc:format>
        <dc:type
           rdf:resource="http://purl.org/dc/dcmitype/StillImage" />
        <dc:title />
      </cc:Work>
    </rdf:RDF>
  </metadata>
  <defs
     id="defs7927" />
  <sodipodi:namedview
     pagecolor="#ffffff"
     bordercolor="#666666"
     borderopacity="1"
     objecttolerance="10"
     gridtolerance="10"
     guidetolerance="10"
     inkscape:pageopacity="0"
     inkscape:pageshadow="2"
     inkscape:window-width="1278"
     inkscape:window-height="710"
     id="namedview7925"
     showgrid="false"
     inkscape:zoom="1.9533604"
     inkscape:cx="-21.570221"
     inkscape:cy="90.094579"
     inkscape:window-x="1"
     inkscape:window-y="729"
     inkscape:window-maximized="0"
     inkscape:current-layer="svg2"
     units="mm"
     showguides="true"
     inkscape:guide-bbox="true">
    <inkscape:grid
       type="xygrid"
       id="grid3131" />
  </sodipodi:namedview>
  <g
     transform="matrix(1.25,0,0,1.25,-106.00917,-429.0899)"
     style="stroke-width:1;stroke-miterlimit:4;stroke-dasharray:none"
     id="g15693">
    <path
       inkscape:connector-curvature="0"
       id="path9-8"
       d="m 124.47797,367.15786 c 0,-6.04686 -9.0742,-6.04686 -9.0742,0 0,6.04688 9.0742,6.04688 9.0742,0"
       style="fill:none;stroke:#000000;stroke-width:1;stroke-miterlimit:4;stroke-opacity:1;stroke-dasharray:none" />
    <path
       inkscape:connector-curvature="0"
       id="path11-6"
       d="m 124.47797,466.37271 c 0,-6.04687 -9.0742,-6.04687 -9.0742,0 0,6.04688 9.0742,6.04688 9.0742,0"
       style="fill:none;stroke:#000000;stroke-width:1;stroke-miterlimit:4;stroke-opacity:1;stroke-dasharray:none" />
    <path
       inkscape:connector-curvature="0"
       id="path13-3"
       d="m 300.22015,367.15786 c 0,-6.04686 -9.0703,-6.04686 -9.0703,0 0,6.04688 9.0703,6.04688 9.0703,0"
       style="fill:none;stroke:#000000;stroke-width:1;stroke-miterlimit:4;stroke-opacity:1;stroke-dasharray:none" />
    <path
       inkscape:connector-curvature="0"
       id="path15-6"
       d="m 300.22015,466.37271 c 0,-6.04687 -9.0703,-6.04687 -9.0703,0 0,6.04688 9.0703,6.04688 9.0703,0"
       style="fill:none;stroke:#000000;stroke-width:1;stroke-miterlimit:4;stroke-opacity:1;stroke-dasharray:none" />
    <rect
       y="389.11322"
       x="108.95148"
       height="22.061731"
       width="42.143562"
       id="rect3947-6"
       style="fill:none;stroke:#000000;stroke-width:0;stroke-miterlimit:4;stroke-opacity:1;stroke-dasharray:none" />
    <g
       transform="matrix(1.1,0,0,1.1,4.8435905,-205.05714)"
       style="stroke-width:1;stroke-miterlimit:4;stroke-dasharray:none"
       id="g3000-3-7">
      <path
         inkscape:connector-curvature="0"
         id="path3525-1-5"
         d="m 283.73314,614.90051 0,-99.21484"
         style="fill:none;stroke:#000000;stroke-width:1;stroke-linecap:round;stroke-linejoin:miter;stroke-miterlimit:4;stroke-opacity:1;stroke-dasharray:none" />
      <path
         inkscape:connector-curvature="0"
         id="path3531-7-9"
         d="m 272.39329,504.34977 c 6.26169,0 11.33985,5.0742 11.33985,11.3359"
         style="fill:none;stroke:#000000;stroke-width:1;stroke-linecap:round;stroke-linejoin:miter;stroke-miterlimit:4;stroke-opacity:1;stroke-dasharray:none" />
      <g
         id="g15685-7-6"
         style="stroke-width:1;stroke-miterlimit:4;stroke-dasharray:none">
        <path
           style="fill:none;stroke:#000000;stroke-width:1;stroke-linecap:round;stroke-linejoin:miter;stroke-miterlimit:4;stroke-opacity:1;stroke-dasharray:none"
           d="m 85.307336,515.68567 0,99.21484"
           id="path3519-1-9"
           inkscape:connector-curvature="0" />
        <path
           style="fill:none;stroke:#000000;stroke-width:1;stroke-linecap:round;stroke-linejoin:miter;stroke-miterlimit:4;stroke-opacity:1;stroke-dasharray:none"
           d="m 96.647192,626.23648 175.746098,0"
           id="path3521-1-7"
           inkscape:connector-curvature="0" />
        <path
           style="fill:none;stroke:#000000;stroke-width:1;stroke-linecap:round;stroke-linejoin:miter;stroke-miterlimit:4;stroke-opacity:1;stroke-dasharray:none"
           d="m 272.39329,504.34977 -175.746098,0"
           id="path3523-6-5"
           inkscape:connector-curvature="0" />
        <path
           style="fill:none;stroke:#000000;stroke-width:1;stroke-linecap:round;stroke-linejoin:miter;stroke-miterlimit:4;stroke-opacity:1;stroke-dasharray:none"
           d="m 85.307336,515.68567 c 0,-6.2617 5.074272,-11.3359 11.339856,-11.3359"
           id="path3527-3-5"
           inkscape:connector-curvature="0" />
        <path
           style="fill:none;stroke:#000000;stroke-width:1;stroke-linecap:round;stroke-linejoin:miter;stroke-miterlimit:4;stroke-opacity:1;stroke-dasharray:none"
           d="m 85.307336,614.90051 c 0,6.26177 5.074272,11.33597 11.339856,11.33597"
           id="path3529-9-0"
           inkscape:connector-curvature="0" />
        <path
           style="fill:none;stroke:#000000;stroke-width:1;stroke-linecap:round;stroke-linejoin:miter;stroke-miterlimit:4;stroke-opacity:1;stroke-dasharray:none"
           d="m 283.73314,614.90051 c 0,3.00392 -1.19534,5.89068 -3.32028,8.01569 -2.12896,2.12494 -5.01177,3.32028 -8.01957,3.32028"
           id="path3533-0-7"
           inkscape:connector-curvature="0" />
      </g>
    </g>
  </g>
  <path
     inkscape:connector-curvature="0"
     id="path9"
     d="m 48.518785,202.57928 c 0,-7.55858 -11.342774,-7.55858 -11.342774,0 0,7.5586 11.342774,7.5586 11.342774,0"
     style="fill:none;stroke:#000000;stroke-width:1.25;stroke-miterlimit:4;stroke-opacity:1;stroke-dasharray:none" />
  <path
     inkscape:connector-curvature="0"
     id="path11"
     d="m 48.518785,326.59783 c 0,-7.55858 -11.342774,-7.55858 -11.342774,0 0,7.5586 11.342774,7.5586 11.342774,0"
     style="fill:none;stroke:#000000;stroke-width:1.25;stroke-miterlimit:4;stroke-opacity:1;stroke-dasharray:none" />
  <path
     inkscape:connector-curvature="0"
     id="path13"
     d="m 268.19652,202.57928 c 0,-7.55858 -11.33788,-7.55858 -11.33788,0 0,7.5586 11.33788,7.5586 11.33788,0"
     style="fill:none;stroke:#000000;stroke-width:1.25;stroke-miterlimit:4;stroke-opacity:1;stroke-dasharray:none" />
  <path
     inkscape:connector-curvature="0"
     id="path15"
     d="m 268.19652,326.59783 c 0,-7.55858 -11.33788,-7.55858 -11.33788,0 0,7.5586 11.33788,7.5586 11.33788,0"
     style="fill:none;stroke:#000000;stroke-width:1.25;stroke-miterlimit:4;stroke-opacity:1;stroke-dasharray:none" />
  <rect
     y="230.02344"
     x="29.110662"
     height="27.577164"
     width="52.679455"
     id="rect3947"
     style="fill:none;stroke:#000000;stroke-width:0;stroke-miterlimit:4;stroke-opacity:1;stroke-dasharray:none" />
  <path
     style="fill:none;stroke:#000200;stroke-width:1;stroke-miterlimit:4;stroke-opacity:1;stroke-dasharray:none"
     d="M 26.28125 221.125 L 26.28125 231.5 L 15.875 231.5 L 15.875 295.78125 L 26.53125 295.78125 L 26.53125 306.15625 L 39.28125 306.15625 L 39.28125 295.25 L 77.03125 295.25 L 77.03125 231.96875 L 39.28125 231.96875 L 39.28125 221.125 L 26.28125 221.125 z "
     id="rect3951" />
  <rect
     style="fill:none;stroke:#000000;stroke-width:0;stroke-miterlimit:4;stroke-opacity:1;stroke-dasharray:none"
     id="rect3947-6-4"
     width="52.679451"
     height="27.577164"
     x="29.084492"
     y="229.74963" />
  <path
     id="path3533-0-7-1"
     style="fill:none;stroke:#000000;stroke-width:1.375;stroke-linecap:round;stroke-linejoin:miter;stroke-miterlimit:4;stroke-opacity:1;stroke-dasharray:none"
     d="m 289.08271,332.52488 c 0,4.13039 -1.64359,8.09969 -4.56539,11.02158 -2.92732,2.92179 -6.89118,4.56538 -11.02691,4.56538 M 16.247227,332.52488 c 0,8.60993 6.977124,15.58696 15.592302,15.58696 M 16.247227,196.10448 c 0,-8.60984 6.977124,-15.58687 15.592302,-15.58687 m 241.650881,0 -241.650881,0 m 0,167.59423 241.650881,0 M 16.247227,196.10448 l 0,136.4204 M 273.49041,180.51761 c 8.60983,0 15.5923,6.97703 15.5923,15.58687 m 0,136.4204 0,-136.4204" />
  <rect
     style="color:#000000;fill:none;stroke:#000000;stroke-width:1.00158572;stroke-linecap:round;stroke-linejoin:round;stroke-miterlimit:4;stroke-opacity:1;stroke-dasharray:none;stroke-dashoffset:0;marker:none;visibility:visible;display:inline;overflow:visible;enable-background:accumulate"
     id="rect3147"
     width="131.96797"
     height="82.637962"
     x="116.99557"
     y="264.98666" />
</svg>
