<?xml version="1.0" encoding="UTF-8" standalone="no"?>
<svg
   xmlns:dc="http://purl.org/dc/elements/1.1/"
   xmlns:cc="http://creativecommons.org/ns#"
   xmlns:rdf="http://www.w3.org/1999/02/22-rdf-syntax-ns#"
   xmlns:svg="http://www.w3.org/2000/svg"
   xmlns="http://www.w3.org/2000/svg"
   xmlns:sodipodi="http://sodipodi.sourceforge.net/DTD/sodipodi-0.dtd"
   xmlns:inkscape="http://www.inkscape.org/namespaces/inkscape"
   width="354.33069"
   height="177.16534"
   viewBox="0 0 0 523"
   version="1.1"
   id="svg2"
   inkscape:version="0.48.5 r10040"
   sodipodi:docname="tocut2.svg">
  <metadata
     id="metadata7929">
    <rdf:RDF>
      <cc:Work
         rdf:about="">
        <dc:format>image/svg+xml</dc:format>
        <dc:type
           rdf:resource="http://purl.org/dc/dcmitype/StillImage" />
      </cc:Work>
    </rdf:RDF>
  </metadata>
  <defs
     id="defs7927" />
  <sodipodi:namedview
     pagecolor="#ffffff"
     bordercolor="#666666"
     borderopacity="1"
     objecttolerance="10"
     gridtolerance="10"
     guidetolerance="10"
     inkscape:pageopacity="0"
     inkscape:pageshadow="2"
     inkscape:window-width="1278"
     inkscape:window-height="710"
     id="namedview7925"
     showgrid="false"
     inkscape:zoom="1.5521561"
     inkscape:cx="149.02609"
     inkscape:cy="134.69143"
     inkscape:window-x="1281"
     inkscape:window-y="17"
     inkscape:window-maximized="0"
     inkscape:current-layer="surface14023"
     units="mm" />
  <g
     id="surface14023"
     transform="translate(0,-476.58465)">
    <path
       style="fill:none;fill-opacity:1;fill-rule:evenodd;stroke:#000000;stroke-opacity:1;stroke-width:1;stroke-miterlimit:4;stroke-dasharray:none"
       d="m 101.18236,515.6857 c 0,-6.04687 -9.074216,-6.04687 -9.074216,0 0,6.04688 9.074216,6.04688 9.074216,0"
       id="path9"
       inkscape:connector-curvature="0" />
    <path
       style="fill:none;fill-opacity:1;fill-rule:evenodd;stroke:#000000;stroke-opacity:1;stroke-width:1;stroke-miterlimit:4;stroke-dasharray:none"
       d="m 101.18236,614.90054 c 0,-6.04687 -9.074216,-6.04687 -9.074216,0 0,6.04688 9.074216,6.04688 9.074216,0"
       id="path11"
       inkscape:connector-curvature="0" />
    <path
       style="fill:none;fill-opacity:1;fill-rule:evenodd;stroke:#000000;stroke-opacity:1;stroke-width:1;stroke-miterlimit:4;stroke-dasharray:none"
       d="m 276.92455,515.6857 c 0,-6.04687 -9.07031,-6.04687 -9.07031,0 0,6.04688 9.07031,6.04688 9.07031,0"
       id="path13"
       inkscape:connector-curvature="0" />
    <path
       style="fill:none;fill-opacity:1;fill-rule:evenodd;stroke:#000000;stroke-opacity:1;stroke-width:1;stroke-miterlimit:4;stroke-dasharray:none"
       d="m 276.92455,614.90054 c 0,-6.04687 -9.07031,-6.04687 -9.07031,0 0,6.04688 9.07031,6.04688 9.07031,0"
       id="path15"
       inkscape:connector-curvature="0" />
    <g
       id="g15693"
       style="stroke-width:1;stroke-miterlimit:4;stroke-dasharray:none">
      <path
         inkscape:connector-curvature="0"
         id="path3525"
         d="m 283.73314,614.90051 0,-99.21484"
         style="fill:none;stroke:#000000;stroke-width:1;stroke-linecap:round;stroke-linejoin:miter;stroke-miterlimit:4;stroke-opacity:1;stroke-dasharray:none" />
      <path
         inkscape:connector-curvature="0"
         id="path3531"
         d="m 272.39329,504.34977 c 6.26169,0 11.33985,5.0742 11.33985,11.3359"
         style="fill:none;stroke:#000000;stroke-width:1;stroke-linecap:round;stroke-linejoin:miter;stroke-miterlimit:4;stroke-opacity:1;stroke-dasharray:none" />
      <g
         id="g15685"
         style="stroke-width:1;stroke-miterlimit:4;stroke-dasharray:none">
        <path
           style="fill:none;stroke:#000000;stroke-width:1;stroke-linecap:round;stroke-linejoin:miter;stroke-miterlimit:4;stroke-opacity:1;stroke-dasharray:none"
           d="m 85.307336,515.68567 0,99.21484"
           id="path3519"
           inkscape:connector-curvature="0" />
        <path
           style="fill:none;stroke:#000000;stroke-width:1;stroke-linecap:round;stroke-linejoin:miter;stroke-miterlimit:4;stroke-opacity:1;stroke-dasharray:none"
           d="m 96.647192,626.23648 175.746098,0"
           id="path3521"
           inkscape:connector-curvature="0" />
        <path
           style="fill:none;stroke:#000000;stroke-width:1;stroke-linecap:round;stroke-linejoin:miter;stroke-miterlimit:4;stroke-opacity:1;stroke-dasharray:none"
           d="m 272.39329,504.34977 -175.746098,0"
           id="path3523"
           inkscape:connector-curvature="0" />
        <path
           style="fill:none;stroke:#000000;stroke-width:1;stroke-linecap:round;stroke-linejoin:miter;stroke-miterlimit:4;stroke-opacity:1;stroke-dasharray:none"
           d="m 85.307336,515.68567 c 0,-6.2617 5.074272,-11.3359 11.339856,-11.3359"
           id="path3527"
           inkscape:connector-curvature="0" />
        <path
           style="fill:none;stroke:#000000;stroke-width:1;stroke-linecap:round;stroke-linejoin:miter;stroke-miterlimit:4;stroke-opacity:1;stroke-dasharray:none"
           d="m 85.307336,614.90051 c 0,6.26177 5.074272,11.33597 11.339856,11.33597"
           id="path3529"
           inkscape:connector-curvature="0" />
        <path
           style="fill:none;stroke:#000000;stroke-width:1;stroke-linecap:round;stroke-linejoin:miter;stroke-miterlimit:4;stroke-opacity:1;stroke-dasharray:none"
           d="m 283.73314,614.90051 c 0,3.00392 -1.19534,5.89068 -3.32028,8.01569 -2.12896,2.12494 -5.01177,3.32028 -8.01957,3.32028"
           id="path3533"
           inkscape:connector-curvature="0" />
      </g>
    </g>
    <path
       style="fill:none;fill-opacity:1;fill-rule:evenodd;stroke:#000000;stroke-opacity:1;stroke-width:1;stroke-miterlimit:4;stroke-dasharray:none"
       d="m 259.55346,564.51773 c 0,-3.875 -3.14063,-7.01953 -7.01954,-7.01953 -3.8789,0 -7.01953,3.14453 -7.01953,7.01953 0,3.87891 3.14063,7.01954 7.01953,7.01954 3.87891,0 7.01954,-3.14063 7.01954,-7.01954"
       id="path6941"
       inkscape:connector-curvature="0" />
    <path
       style="fill:none;fill-opacity:1;fill-rule:evenodd;stroke:#000000;stroke-opacity:1;stroke-width:1;stroke-miterlimit:4;stroke-dasharray:none"
       d="m 276.65502,564.51773 c 0,-3.77734 -3.0625,-6.83984 -6.83985,-6.83984 -3.77734,0 -6.83984,3.0625 -6.83984,6.83984 0,3.77735 3.0625,6.83985 6.83984,6.83985 3.77735,0 6.83985,-3.0625 6.83985,-6.83985"
       id="path6943"
       inkscape:connector-curvature="0" />
    <path
       style="fill:none;fill-opacity:1;fill-rule:evenodd;stroke:#000000;stroke-opacity:1;stroke-width:1;stroke-miterlimit:4;stroke-dasharray:none"
       d="m 268.01439,578.19742 c 0,-3.77734 -3.0625,-6.83984 -6.83984,-6.83984 -3.77734,0 -6.83984,3.0625 -6.83984,6.83984 0,3.78125 3.0625,6.83985 6.83984,6.83985 3.77734,0 6.83984,-3.0586 6.83984,-6.83985"
       id="path6945"
       inkscape:connector-curvature="0" />
    <path
       style="fill:none;fill-opacity:1;fill-rule:evenodd;stroke:#000000;stroke-opacity:1;stroke-width:1;stroke-miterlimit:4;stroke-dasharray:none"
       d="m 272.98705,538.34977 0,4.75 4.75391,0 0,-4.75 z m 0,0"
       id="path6947"
       inkscape:connector-curvature="0" />
    <path
       style="fill:none;fill-opacity:1;fill-rule:evenodd;stroke:#000000;stroke-opacity:1;stroke-width:1;stroke-miterlimit:4;stroke-dasharray:none"
       d="m 277.74096,533.52555 c 0,-3.16797 -4.75391,-3.16797 -4.75391,0 0,3.16797 4.75391,3.16797 4.75391,0"
       id="path6949"
       inkscape:connector-curvature="0" />
    <path
       style="fill:none;fill-opacity:1;fill-rule:evenodd;stroke:#000000;stroke-opacity:1;stroke-width:1;stroke-miterlimit:4;stroke-dasharray:none"
       d="m 137.23705,564.7482 c 0,-4.65625 -6.98438,-4.65625 -6.98438,0 0,4.65625 6.98438,4.65625 6.98438,0"
       id="path6951"
       inkscape:connector-curvature="0" />
    <path
       style="fill:none;fill-opacity:1;fill-rule:evenodd;stroke:#000000;stroke-opacity:1;stroke-width:1;stroke-miterlimit:4;stroke-dasharray:none"
       d="m 186.92846,602.05679 0,4.75391 4.75,0 0,-4.75391 z m 0,0"
       id="path6953"
       inkscape:connector-curvature="0" />
    <path
       style="fill:none;fill-opacity:1;fill-rule:evenodd;stroke:#000000;stroke-opacity:1;stroke-width:1;stroke-miterlimit:4;stroke-dasharray:none"
       d="m 191.67846,597.23257 c 0,-3.16796 -4.75,-3.16796 -4.75,0 0,3.16797 4.75,3.16797 4.75,0"
       id="path6955"
       inkscape:connector-curvature="0" />
    <path
       style="fill:none;fill-opacity:1;fill-rule:evenodd;stroke:#000000;stroke-opacity:1;stroke-width:1;stroke-miterlimit:4;stroke-dasharray:none"
       d="m 191.67846,590.03336 c 0,-3.16797 -4.75,-3.16797 -4.75,0 0,3.16797 4.75,3.16797 4.75,0"
       id="path6957"
       inkscape:connector-curvature="0" />
    <path
       style="fill:none;fill-opacity:1;fill-rule:evenodd;stroke:#000000;stroke-opacity:1;stroke-width:1;stroke-miterlimit:4;stroke-dasharray:none"
       d="m 198.88158,604.4357 c 0,-3.16797 -4.75391,-3.16797 -4.75391,0 0,3.16797 4.75391,3.16797 4.75391,0"
       id="path6959"
       inkscape:connector-curvature="0" />
    <path
       style="fill:none;fill-opacity:1;fill-rule:evenodd;stroke:#000000;stroke-opacity:1;stroke-width:1;stroke-miterlimit:4;stroke-dasharray:none"
       d="m 222.51439,617.89664 c 0,-3.64453 -5.47265,-3.64453 -5.47265,0 0,3.64843 5.47265,3.64843 5.47265,0"
       id="path6961"
       inkscape:connector-curvature="0" />
    <path
       style="fill:none;fill-opacity:1;fill-rule:evenodd;stroke:#000000;stroke-opacity:1;stroke-width:1;stroke-miterlimit:4;stroke-dasharray:none"
       d="m 229.60033,617.89664 c 0,-3.64453 -5.47266,-3.64453 -5.47266,0 0,3.64843 5.47266,3.64843 5.47266,0"
       id="path6963"
       inkscape:connector-curvature="0" />
    <path
       style="fill:none;fill-opacity:1;fill-rule:evenodd;stroke:#000000;stroke-opacity:1;stroke-width:1;stroke-miterlimit:4;stroke-dasharray:none"
       d="m 236.68627,617.89664 c 0,-3.64453 -5.47266,-3.64453 -5.47266,0 0,3.64843 5.47266,3.64843 5.47266,0"
       id="path6965"
       inkscape:connector-curvature="0" />
    <path
       style="fill:none;fill-opacity:1;fill-rule:evenodd;stroke:#000000;stroke-opacity:1;stroke-width:1;stroke-miterlimit:4;stroke-dasharray:none"
       d="m 198.88158,597.23257 c 0,-3.16796 -4.75391,-3.16796 -4.75391,0 0,3.16797 4.75391,3.16797 4.75391,0"
       id="path6967"
       inkscape:connector-curvature="0" />
    <path
       style="fill:none;fill-opacity:1;fill-rule:evenodd;stroke:#000000;stroke-opacity:1;stroke-width:1;stroke-miterlimit:4;stroke-dasharray:none"
       d="m 246.84642,598.05679 c 0,-6.61327 -9.91796,-6.61327 -9.91796,0 0,6.61328 9.91796,6.61328 9.91796,0"
       id="path6969"
       inkscape:connector-curvature="0" />
    <path
       style="fill:none;fill-opacity:1;fill-rule:evenodd;stroke:#000000;stroke-opacity:1;stroke-width:1;stroke-miterlimit:4;stroke-dasharray:none"
       d="m 216.79955,598.05679 c 0,-6.61327 -9.92188,-6.61327 -9.92188,0 0,6.61328 9.92188,6.61328 9.92188,0"
       id="path6971"
       inkscape:connector-curvature="0" />
    <path
       style="fill:none;fill-opacity:1;fill-rule:evenodd;stroke:#000000;stroke-opacity:1;stroke-width:1;stroke-miterlimit:4;stroke-dasharray:none"
       d="m 198.88158,590.03336 c 0,-3.16797 -4.75391,-3.16797 -4.75391,0 0,3.16797 4.75391,3.16797 4.75391,0"
       id="path6973"
       inkscape:connector-curvature="0" />
    <path
       style="fill:none;fill-opacity:1;fill-rule:evenodd;stroke:#000000;stroke-opacity:1;stroke-width:1;stroke-miterlimit:4;stroke-dasharray:none"
       d="m 186.17455,558.39664 0,5.83203 5.83203,0 0,-5.83203 z m 0,0"
       id="path6975"
       inkscape:connector-curvature="0" />
    <path
       style="fill:none;fill-opacity:1;fill-rule:evenodd;stroke:#000000;stroke-opacity:1;stroke-width:1;stroke-miterlimit:4;stroke-dasharray:none"
       d="m 199.2058,561.31461 c 0,-3.89063 -5.83203,-3.89063 -5.83203,0 0,3.88672 5.83203,3.88672 5.83203,0"
       id="path6977"
       inkscape:connector-curvature="0" />
    <path
       style="fill:none;fill-opacity:1;fill-rule:evenodd;stroke:#000000;stroke-opacity:1;stroke-width:1;stroke-miterlimit:4;stroke-dasharray:none"
       d="m 97.459707,597.83414 0,5.83203 5.832033,0 0,-5.83203 z m 0,0"
       id="path6979"
       inkscape:connector-curvature="0" />
    <path
       style="fill:none;fill-opacity:1;fill-rule:evenodd;stroke:#000000;stroke-opacity:1;stroke-width:1;stroke-miterlimit:4;stroke-dasharray:none"
       d="m 110.49096,600.75211 c 0,-3.88672 -5.83204,-3.88672 -5.83204,0 0,3.88671 5.83204,3.88671 5.83204,0"
       id="path6981"
       inkscape:connector-curvature="0" />
    <path
       style="fill:none;fill-opacity:1;fill-rule:evenodd;stroke:#000000;stroke-opacity:1;stroke-width:1;stroke-miterlimit:4;stroke-dasharray:none"
       d="m 123.34642,564.7482 c 0,-4.65625 -6.98437,-4.65625 -6.98437,0 0,4.65625 6.98437,4.65625 6.98437,0"
       id="path6983"
       inkscape:connector-curvature="0" />
    <path
       style="fill:none;fill-opacity:1;fill-rule:evenodd;stroke:#000000;stroke-opacity:1;stroke-width:1;stroke-miterlimit:4;stroke-dasharray:none"
       d="m 123.34642,586.00992 c 0,-4.65625 -6.98437,-4.65625 -6.98437,0 0,4.65625 6.98437,4.65625 6.98437,0"
       id="path6985"
       inkscape:connector-curvature="0" />
    <path
       style="fill:none;fill-opacity:1;fill-rule:evenodd;stroke:#000000;stroke-opacity:1;stroke-width:1;stroke-miterlimit:4;stroke-dasharray:none"
       d="m 130.71752,578.92398 c 0,-4.65625 -6.98438,-4.65625 -6.98438,0 0,4.65235 6.98438,4.65235 6.98438,0"
       id="path6987"
       inkscape:connector-curvature="0" />
    <path
       style="fill:none;fill-opacity:1;fill-rule:evenodd;stroke:#000000;stroke-opacity:1;stroke-width:1;stroke-miterlimit:4;stroke-dasharray:none"
       d="m 123.34642,543.49039 c 0,-4.65625 -6.98437,-4.65625 -6.98437,0 0,4.65234 6.98437,4.65234 6.98437,0"
       id="path6989"
       inkscape:connector-curvature="0" />
    <path
       style="fill:none;fill-opacity:1;fill-rule:evenodd;stroke:#000000;stroke-opacity:1;stroke-width:1;stroke-miterlimit:4;stroke-dasharray:none"
       d="m 130.71752,550.57633 c 0,-4.65625 -6.98438,-4.65625 -6.98438,0 0,4.65625 6.98438,4.65625 6.98438,0"
       id="path6991"
       inkscape:connector-curvature="0" />
    <path
       style="fill:none;fill-opacity:1;fill-rule:evenodd;stroke:#000000;stroke-opacity:1;stroke-width:1;stroke-miterlimit:4;stroke-dasharray:none"
       d="m 96.135488,550.57633 c 0,-4.65625 -6.984375,-4.65625 -6.984375,0 0,4.65625 6.984375,4.65625 6.984375,0"
       id="path6993"
       inkscape:connector-curvature="0" />
    <path
       style="fill:none;fill-opacity:1;fill-rule:evenodd;stroke:#000000;stroke-opacity:1;stroke-width:1;stroke-miterlimit:4;stroke-dasharray:none"
       d="m 96.135488,578.92398 c 0,-4.65625 -6.984375,-4.65625 -6.984375,0 0,4.65235 6.984375,4.65235 6.984375,0"
       id="path6995"
       inkscape:connector-curvature="0" />
  </g>
</svg>
